<svg xmlns="http://www.w3.org/2000/svg" width="11" height="11" viewBox="0 0 11 11" fill="none">
  <path d="M1.38107 9.6106C4.13738 9.6106 6.86073 9.6106 9.60385 9.6106C9.60838 9.52942 9.6158 9.45649 9.6158 9.38396C9.61703 8.79347 9.6125 8.20298 9.61868 7.61249C9.6228 7.20784 9.85851 6.92393 10.2051 6.8852C10.6357 6.83698 10.9867 7.12131 10.9921 7.55645C11.0028 8.47659 11.002 9.39674 10.9925 10.3169C10.9884 10.7207 10.6868 10.9923 10.2648 10.9935C8.78878 10.9968 7.31235 10.9968 5.83633 10.9968C4.16788 10.9968 2.49942 10.9939 0.830965 10.9964C0.266023 10.9972 -0.000171746 10.738 -0.000171746 10.169C-0.000171746 9.31762 -0.00223208 8.46588 0.00024032 7.61455C0.00188858 7.17653 0.282917 6.88272 0.691275 6.88108C1.09634 6.87943 1.37242 7.15675 1.37778 7.59189C1.38519 8.18238 1.38025 8.77287 1.38066 9.36336C1.38107 9.43794 1.38107 9.51253 1.38107 9.6106Z" fill="#6C7AFF"/>
  <path d="M4.76409 2.39409C4.26178 2.89969 3.75988 3.40571 3.25675 3.91008C3.05525 4.11199 2.81502 4.18204 2.54017 4.09386C2.27233 4.00815 2.12398 3.81201 2.07453 3.5421C2.03333 3.31629 2.10667 3.11685 2.26408 2.95862C3.18423 2.03436 4.10396 1.11009 5.03234 0.194893C5.30348 -0.0725378 5.70648 -0.0647085 5.97886 0.205607C6.90518 1.12328 7.82615 2.04631 8.74423 2.97222C9.0026 3.23264 8.9923 3.66696 8.7397 3.92327C8.47351 4.19358 8.06268 4.21171 7.7767 3.93769C7.29623 3.477 6.83142 3.00024 6.35961 2.53089C6.31304 2.48474 6.26401 2.44148 6.18118 2.36401C6.18118 2.47362 6.18118 2.53914 6.18118 2.60424C6.18118 4.22407 6.18242 5.8439 6.17871 7.46374C6.1783 7.59148 6.16635 7.72828 6.11937 7.8449C5.99905 8.14282 5.66651 8.30641 5.36117 8.2413C5.04718 8.17455 4.81436 7.8927 4.81395 7.55892C4.81148 5.93909 4.81271 4.31926 4.81271 2.69943C4.81271 2.60507 4.81271 2.5107 4.81271 2.41593C4.79623 2.40851 4.78016 2.40151 4.76409 2.39409Z" fill="#6C7AFF"/>
</svg>