<svg xmlns="http://www.w3.org/2000/svg" width="14" height="14" viewBox="0 0 14 14" fill="none">
    <path d="M13.5084 13.5H1.66398C1.2595 13.5 1.05725 13.5 0.902763 13.4213C0.766868 13.352 0.656382 13.2416 0.58714 13.1057C0.508423 12.9512 0.508423 12.7489 0.508423 12.3444V0.5M13.5084 3.38889L9.58364 7.31367C9.44063 7.45668 9.36913 7.52818 9.28668 7.55497C9.21415 7.57854 9.13603 7.57854 9.0635 7.55497C8.98105 7.52818 8.90955 7.45668 8.76654 7.31367L7.41697 5.96411C7.27397 5.8211 7.20246 5.7496 7.12001 5.72281C7.04749 5.69924 6.96936 5.69924 6.89683 5.72281C6.81438 5.7496 6.74288 5.8211 6.59987 5.96411L3.39731 9.16667M13.5084 3.38889H10.6195M13.5084 3.38889V6.27778" stroke="#9299A2" stroke-linecap="round" stroke-linejoin="round"/>
</svg>