<svg xmlns="http://www.w3.org/2000/svg" width="14" height="14" viewBox="0 0 14 14" fill="none">
    <path d="M6.06813 7.93187L12.6197 1.38033M6.14773 8.13657L7.78756 12.3533C7.93202 12.7247 8.00425 12.9105 8.10833 12.9647C8.19855 13.0117 8.30603 13.0118 8.39631 12.9649C8.50045 12.9108 8.5729 12.7251 8.71779 12.3538L12.8299 1.8166C12.9607 1.48142 13.0261 1.31383 12.9903 1.20675C12.9592 1.11375 12.8863 1.04076 12.7933 1.00969C12.6862 0.97392 12.5186 1.03932 12.1834 1.17012L1.64618 5.2822C1.27488 5.4271 1.08923 5.49955 1.03513 5.60369C0.98823 5.69397 0.988293 5.80145 1.0353 5.89167C1.08953 5.99575 1.27526 6.06798 1.64673 6.21244L5.86343 7.85227C5.93883 7.88159 5.97654 7.89625 6.00828 7.9189C6.03642 7.93897 6.06103 7.96358 6.0811 7.99172C6.10375 8.02346 6.11841 8.06117 6.14773 8.13657Z" stroke="#9299A2" stroke-linecap="round" stroke-linejoin="round"/>
</svg>