<svg xmlns="http://www.w3.org/2000/svg" width="12" height="14" viewBox="0 0 12 14" fill="none">
    <path d="M4.42375 8.66506C4.6288 9.05551 5.03824 9.32183 5.50987 9.32183H6.911C7.63645 9.32183 8.22455 8.73374 8.22455 8.00828C8.22455 7.28282 7.63645 6.69472 6.911 6.69472H5.59744C4.87199 6.69472 4.28389 6.10663 4.28389 5.38117C4.28389 4.65571 4.87199 4.06761 5.59744 4.06761H6.99857C7.4702 4.06761 7.87963 4.33393 8.08468 4.72439M6.25422 3.08245V4.06761M6.25422 9.32183V10.307M11.5084 7.02311C11.5084 10.2469 7.99208 12.5915 6.71264 13.3379C6.56724 13.4228 6.49454 13.4652 6.39193 13.4872C6.31231 13.5043 6.19613 13.5043 6.11651 13.4872C6.0139 13.4652 5.9412 13.4228 5.7958 13.3379C4.51636 12.5915 1 10.2469 1 7.02311V3.88214C1 3.35704 1 3.09449 1.08588 2.8688C1.16175 2.66943 1.28503 2.49153 1.44507 2.35049C1.62623 2.19083 1.87207 2.09865 2.36374 1.91427L5.88524 0.593705C6.02178 0.542502 6.09006 0.5169 6.16029 0.506751C6.22259 0.49775 6.28585 0.49775 6.34815 0.506751C6.41838 0.5169 6.48665 0.542502 6.6232 0.593705L10.1447 1.91427C10.6364 2.09865 10.8822 2.19083 11.0634 2.35049C11.2234 2.49153 11.3467 2.66943 11.4226 2.8688C11.5084 3.09449 11.5084 3.35704 11.5084 3.88214V7.02311Z" stroke="#9299A2" stroke-linecap="round" stroke-linejoin="round"/>
</svg>