<svg xmlns="http://www.w3.org/2000/svg" width="9" height="9" viewBox="0 0 9 9" fill="none">
    <path d="M4.15752 0.412463C4.26756 0.178639 4.32258 0.0617278 4.39727 0.0243745C4.46225 -0.00812482 4.53775 -0.00812482 4.60273 0.0243745C4.67742 0.0617278 4.73244 0.178639 4.84248 0.412463L5.88643 2.6308C5.91891 2.69983 5.93516 2.73435 5.95889 2.76115C5.97991 2.78487 6.00512 2.8041 6.03312 2.81775C6.06474 2.83318 6.10105 2.83875 6.17367 2.84988L8.50883 3.20789C8.75473 3.24559 8.87768 3.26444 8.93458 3.32743C8.98409 3.38224 9.00737 3.45756 8.99794 3.53241C8.98711 3.61844 8.8981 3.70938 8.72007 3.89126L7.03097 5.61689C6.97832 5.67068 6.95199 5.69758 6.935 5.72958C6.91996 5.75791 6.91031 5.78904 6.90659 5.82124C6.90239 5.8576 6.9086 5.8956 6.92102 5.97158L7.31957 8.40896C7.36161 8.66604 7.38263 8.79457 7.34313 8.87085C7.30876 8.93722 7.24767 8.98376 7.17688 8.99753C7.09551 9.01335 6.98546 8.95265 6.76537 8.83125L4.67777 7.67972C4.61273 7.64384 4.5802 7.6259 4.54594 7.61885C4.5156 7.61261 4.4844 7.61261 4.45406 7.61885C4.4198 7.6259 4.38728 7.64384 4.32223 7.67972L2.23463 8.83125C2.01454 8.95265 1.90449 9.01335 1.82312 8.99753C1.75233 8.98376 1.69124 8.93722 1.65687 8.87085C1.61737 8.79457 1.63839 8.66604 1.68043 8.40896L2.07898 5.97158C2.0914 5.8956 2.09761 5.8576 2.09341 5.82124C2.08969 5.78904 2.08004 5.75791 2.065 5.72958C2.04801 5.69758 2.02168 5.67068 1.96903 5.61689L0.279927 3.89126C0.101901 3.70938 0.0128882 3.61844 0.00205647 3.53241C-0.00736774 3.45756 0.0159145 3.38224 0.0654208 3.32743C0.122321 3.26444 0.245272 3.24559 0.491175 3.20789L2.82633 2.84988C2.89895 2.83875 2.93526 2.83318 2.96688 2.81775C2.99488 2.8041 3.02009 2.78487 3.04111 2.76115C3.06484 2.73435 3.08109 2.69983 3.11357 2.6308L4.15752 0.412463Z" fill="#A8A8A8"/>
</svg>