<svg xmlns="http://www.w3.org/2000/svg" width="11" height="8" viewBox="0 0 11 8" fill="none">
    <path d="M1.12062 4.30565C1.05837 4.21323 1.02724 4.16702 1.00982 4.09575C0.996728 4.04221 0.996728 3.95779 1.00982 3.90425C1.02724 3.83298 1.05837 3.78677 1.12062 3.69435C1.63507 2.93065 3.16638 1 5.5 1C7.83362 1 9.36493 2.93065 9.87938 3.69435C9.94163 3.78677 9.97276 3.83298 9.99018 3.90425C10.0033 3.95779 10.0033 4.04221 9.99018 4.09575C9.97276 4.16702 9.94163 4.21323 9.87938 4.30565C9.36493 5.06935 7.83362 7 5.5 7C3.16638 7 1.63507 5.06935 1.12062 4.30565Z" stroke="#A8A8A8" stroke-linecap="round" stroke-linejoin="round"/>
    <path d="M5.5 5.28571C6.25739 5.28571 6.87137 4.71008 6.87137 4C6.87137 3.28992 6.25739 2.71429 5.5 2.71429C4.74261 2.71429 4.12863 3.28992 4.12863 4C4.12863 4.71008 4.74261 5.28571 5.5 5.28571Z" stroke="#A8A8A8" stroke-linecap="round" stroke-linejoin="round"/>
</svg>