<svg xmlns="http://www.w3.org/2000/svg" width="14" height="14" viewBox="0 0 14 14" fill="none">
    <path d="M7.00005 9.15635C8.19041 9.15635 9.15538 8.19138 9.15538 7.00103C9.15538 5.81068 8.19041 4.8457 7.00005 4.8457C5.8097 4.8457 4.84473 5.81068 4.84473 7.00103C4.84473 8.19138 5.8097 9.15635 7.00005 9.15635Z" fill="#191B2A"/>
    <path d="M13.7853 6.40426C12.1285 4.40223 9.62066 2.4751 7.00003 2.4751C4.37888 2.4751 1.87043 4.40358 0.214792 6.40426C-0.0715972 6.75019 -0.0715972 7.25238 0.214792 7.59831C0.631039 8.10131 1.50368 9.07228 2.66917 9.92067C5.60443 12.0575 8.38916 12.0622 11.3309 9.92067C12.4964 9.07228 13.369 8.10131 13.7853 7.59831C14.0708 7.25305 14.0723 6.75132 13.7853 6.40426ZM7.00003 3.98383C8.66394 3.98383 10.0175 5.33737 10.0175 7.00128C10.0175 8.66519 8.66394 10.0187 7.00003 10.0187C5.33612 10.0187 3.98257 8.66519 3.98257 7.00128C3.98257 5.33737 5.33612 3.98383 7.00003 3.98383Z" fill="#191B2A"/>
</svg>