<svg xmlns="http://www.w3.org/2000/svg" width="17" height="17" viewBox="0 0 17 17" fill="none">
    <path d="M8.5 0C3.81296 0 0 3.82539 0 8.52771C0.427125 19.8255 16.575 19.8227 17 8.52771C17 3.82539 13.187 0 8.5 0ZM9.20833 12.0809V12.7916C9.20479 13.7211 7.79521 13.7204 7.79167 12.7916V12.0809H7.60183C6.84604 12.0809 6.14054 11.673 5.76158 11.0157C5.56537 10.6753 5.68154 10.2411 6.01942 10.0449C6.35871 9.84667 6.79221 9.96463 6.987 10.3036C7.11379 10.5239 7.34896 10.6596 7.60112 10.6596H9.20762C9.91383 10.7058 10.2297 9.55815 9.45979 9.40891L7.30575 9.04862C4.82517 8.58741 5.35925 4.96029 7.79096 4.9745V4.26386C7.79521 3.33434 9.20408 3.33505 9.20762 4.26386V4.9745H9.39746C10.1532 4.9745 10.8587 5.38312 11.2377 6.04046C11.4339 6.38015 11.3177 6.81435 10.9799 7.0112C10.6399 7.20805 10.2071 7.09151 10.0123 6.75182C9.8855 6.53223 9.65033 6.3965 9.39817 6.3965H7.79167C7.08546 6.35031 6.77025 7.49799 7.5395 7.64723L9.69354 8.00752C12.1741 8.46873 11.64 12.0951 9.20833 12.0809Z" fill="#D0FFCF"/>
</svg>