<svg xmlns="http://www.w3.org/2000/svg" width="10" height="10" viewBox="0 0 10 10" fill="none">
    <path d="M5 1V9M3.13333 1H6.86667C7.6134 1 7.98677 1 8.27199 1.14532C8.52287 1.27316 8.72684 1.47713 8.85468 1.72801C9 2.01323 9 2.3866 9 3.13333V6.86667C9 7.6134 9 7.98677 8.85468 8.27199C8.72684 8.52287 8.52287 8.72684 8.27199 8.85468C7.98677 9 7.6134 9 6.86667 9H3.13333C2.3866 9 2.01323 9 1.72801 8.85468C1.47713 8.72684 1.27316 8.52287 1.14532 8.27199C1 7.98677 1 7.6134 1 6.86667V3.13333C1 2.3866 1 2.01323 1.14532 1.72801C1.27316 1.47713 1.47713 1.27316 1.72801 1.14532C2.01323 1 2.3866 1 3.13333 1Z" stroke="#A8A8A8" stroke-linecap="round" stroke-linejoin="round"/>
</svg>