<svg xmlns="http://www.w3.org/2000/svg" width="10" height="10" viewBox="0 0 10 10" fill="none">
    <path d="M2.77778 3.38357H5M2.77778 4.90039H6.33333M3.97056 7.50065H6.86667C7.6134 7.50065 7.98677 7.50065 8.27199 7.35895C8.52287 7.2343 8.72684 7.0354 8.85468 6.79077C9 6.51265 9 6.14858 9 5.42044V3.08021C9 2.35207 9 1.988 8.85468 1.70988C8.72684 1.46525 8.52287 1.26635 8.27199 1.14171C7.98677 1 7.6134 1 6.86667 1H3.13333C2.3866 1 2.01323 1 1.72801 1.14171C1.47713 1.26635 1.27316 1.46525 1.14532 1.70988C1 1.988 1 2.35207 1 3.08021V8.5128C1 8.74373 1 8.85919 1.04855 8.91849C1.09077 8.97007 1.15479 9.00007 1.22246 9C1.30028 8.99992 1.39274 8.92779 1.57767 8.78353L2.63787 7.95649C2.85445 7.78754 2.96274 7.70307 3.08333 7.64299C3.19031 7.5897 3.30419 7.55075 3.42187 7.5272C3.55452 7.50065 3.6932 7.50065 3.97056 7.50065Z" stroke="#A8A8A8" stroke-linecap="round" stroke-linejoin="round"/>
</svg>