<svg xmlns="http://www.w3.org/2000/svg" width="163" height="109" viewBox="0 0 163 109" fill="none">
    <path d="M8.90353 62.2004C-5.87284 69.9729 -11.5716 88.3196 -3.79914 103.096L9.41629 128.22C9.90262 129.145 11.0477 129.5 11.9723 129.014L37.0965 115.799C51.8728 108.026 57.5716 89.6795 49.7991 74.9031C42.0267 60.1267 23.6799 54.428 8.90353 62.2004ZM28.1991 94.8183L14.7995 101.867C13.8749 102.353 12.7298 101.997 12.2435 101.073C11.7572 100.148 12.1129 99.003 13.0374 98.5166L26.437 91.4684C27.3616 90.9821 28.5066 91.3378 28.993 92.2623C29.4793 93.1869 29.1236 94.332 28.1991 94.8183ZM32.9626 79.4825L9.51331 91.8169C8.58874 92.3032 7.44367 91.9475 6.95734 91.0229C6.47101 90.0984 6.82669 88.9533 7.75126 88.467L31.2005 76.1326C32.1251 75.6462 33.2701 76.0019 33.7565 76.9265C34.2428 77.8511 33.8871 78.9961 32.9626 79.4825Z" fill="#E1E1E1"/>
    <path d="M90.7897 17.7702C84.6554 13.9689 76.5713 15.8671 72.7701 22.0015L66.3068 32.4316C66.0689 32.8154 66.1874 33.32 66.5712 33.5578L77.0014 40.0211C83.1357 43.8224 91.2198 41.9241 95.021 35.7898C98.8223 29.6555 96.9241 21.5714 90.7897 17.7702ZM82.8674 32.1079L77.3046 28.6608C76.9208 28.423 76.8023 27.9184 77.0402 27.5346C77.278 27.1508 77.7826 27.0323 78.1664 27.2701L83.7291 30.7172C84.113 30.9551 84.2314 31.4596 83.9936 31.8434C83.7557 32.2273 83.2512 32.3457 82.8674 32.1079ZM89.6247 30.5212L79.8899 24.4888C79.5061 24.2509 79.3876 23.7464 79.6255 23.3625C79.8633 22.9787 80.3679 22.8602 80.7517 23.0981L90.4865 29.1305C90.8703 29.3683 90.9888 29.8729 90.751 30.2567C90.5131 30.6405 90.0086 30.759 89.6247 30.5212Z" fill="#E1E1E1"/>
    <path d="M131.393 61.7335C137.616 58.0795 145.652 60.1699 149.306 66.3931L155.519 76.9743C155.748 77.3637 155.617 77.8653 155.228 78.0939L144.647 84.3068C138.423 87.9608 130.387 85.8704 126.733 79.6472C123.079 73.424 125.169 65.3875 131.393 61.7335ZM138.971 76.256L144.614 72.9425C145.004 72.7138 145.134 72.2123 144.906 71.8229C144.677 71.4335 144.175 71.303 143.786 71.5316L138.143 74.8452C137.753 75.0738 137.623 75.5754 137.851 75.9648C138.08 76.3542 138.582 76.4846 138.971 76.256ZM132.253 74.5087L142.129 68.71C142.519 68.4813 142.649 67.9798 142.42 67.5904C142.192 67.201 141.69 67.0705 141.301 67.2991L131.425 73.0978C131.036 73.3265 130.905 73.828 131.134 74.2174C131.362 74.6068 131.864 74.7373 132.253 74.5087Z" fill="#E1E1E1"/>
    <path d="M30.7881 3.67764C27.8425 5.45943 26.8956 9.30585 28.6774 12.2514L31.707 17.2598C31.8185 17.4441 32.0585 17.5032 32.2428 17.3917L37.2512 14.3622C40.1968 12.5804 41.1437 8.73396 39.3619 5.78837C37.5801 2.84278 33.7337 1.89585 30.7881 3.67764ZM35.1614 10.1535L32.4903 11.7693C32.306 11.8808 32.0659 11.8217 31.9544 11.6374C31.843 11.453 31.9021 11.213 32.0864 11.1015L34.7575 9.48572C34.9418 9.37423 35.1819 9.43333 35.2934 9.61764C35.4049 9.80195 35.3458 10.042 35.1614 10.1535ZM35.953 6.93833L31.2785 9.76592C31.0942 9.87741 30.8541 9.81831 30.7426 9.634C30.6311 9.44969 30.6902 9.20963 30.8745 9.09814L35.549 6.27054C35.7333 6.15906 35.9734 6.21816 36.0849 6.40246C36.1964 6.58677 36.1373 6.82684 35.953 6.93833Z" fill="#E1E1E1"/>
    <path d="M150.342 3.23135C147.397 5.01314 146.45 8.85957 148.232 11.8052L151.261 16.8135C151.373 16.9978 151.613 17.0569 151.797 16.9455L156.805 13.9159C159.751 12.1341 160.698 8.28767 158.916 5.34208C157.134 2.39649 153.288 1.44956 150.342 3.23135ZM154.716 9.70722L152.044 11.323C151.86 11.4345 151.62 11.3754 151.509 11.1911C151.397 11.0068 151.456 10.7667 151.641 10.6552L154.312 9.03943C154.496 8.92794 154.736 8.98704 154.848 9.17135C154.959 9.35566 154.9 9.59573 154.716 9.70722ZM155.507 6.49204L150.833 9.31963C150.648 9.43112 150.408 9.37202 150.297 9.18771C150.185 9.00341 150.244 8.76334 150.429 8.65185L155.103 5.82425C155.287 5.71277 155.528 5.77187 155.639 5.95618C155.751 6.14048 155.691 6.38055 155.507 6.49204Z" fill="#E1E1E1"/>
</svg>