<?xml version="1.0" encoding="utf-8"?>
<!-- Generator: Adobe Illustrator 28.0.0, SVG Export Plug-In . SVG Version: 6.00 Build 0)  -->
<svg version="1.1" id="Layer_1" xmlns="http://www.w3.org/2000/svg" xmlns:xlink="http://www.w3.org/1999/xlink" x="0px" y="0px"
	 viewBox="0 0 32 36" style="enable-background:new 0 0 32 36;" xml:space="preserve">
<style type="text/css">
	.st0{fill:#35CEC0;}
	.st1{fill:#2D4A4F;}
</style>
<g>
	<path class="st0" d="M1,15.3c0-3.1,0-6.3,0-9.4c0-1.1,0.4-2,1.2-2.7c0.6-0.5,1.4-0.8,2.2-0.8c2,0,4,0,6,0c0.2,0,0.4,0.1,0.7,0.1
		c0.1,0,0.1,0.1,0.2,0.2c0.2,0.8,0.3,1.5,0.5,2.3c0.1,0.3-0.1,0.2-0.2,0.2c-2,0-4,0-6,0c-0.1,0-0.3,0-0.4,0C4.3,5.2,3.9,5.6,3.9,6.4
		c0,5.9,0,11.9,0,17.8c0,0.9,0.4,1.6,1,2.3c1,1,2.2,1.9,3.4,2.7c0.4,0.3,0.9,0.6,1.4,0.9c0.5,0.4,0.6,0.6,0.4,1.2
		c-0.2,0.7-0.5,1.4-0.7,2.1c-0.1,0.2-0.1,0.2-0.3,0.1c-2-1.4-3.9-2.8-5.6-4.5c-0.7-0.7-1.4-1.5-1.9-2.4c-0.3-0.6-0.5-1.3-0.5-2
		C1,21.6,1,18.4,1,15.3C1,15.3,1,15.3,1,15.3z"/>
	<path class="st1" d="M31,15.3c0,3,0,6.1,0,9.1c0,1.5-0.6,2.7-1.5,3.7c-1.1,1.3-2.4,2.3-3.7,3.3c-0.9,0.7-1.8,1.4-2.7,2.1
		c-0.2,0.1-0.3,0.2-0.4-0.1c-0.3-0.7-0.5-1.5-0.8-2.2c-0.1-0.4,0-0.7,0.3-0.9c0.2-0.2,0.5-0.4,0.8-0.6c1.3-0.9,2.7-1.8,3.8-2.9
		c0.5-0.5,1-1,1.2-1.7c0.1-0.3,0.1-0.6,0.1-0.9c0-5.9,0-11.9,0-17.8c0-0.8-0.4-1.2-1.2-1.3c-0.6,0-1.2,0-1.9,0c-1.3,0-2.5,0-3.8,0
		c-0.2,0-0.3-0.1-0.3-0.2c-0.1-0.7-0.2-1.5-0.3-2.2c0-0.1,0-0.2,0.2-0.2c1.4,0,2.8,0,4.2,0c0.7,0,1.5,0,2.2,0c0.8,0,1.5,0.2,2.1,0.6
		c0.7,0.4,1.2,1,1.4,1.7C30.9,5.1,31,5.5,31,5.9C31,9,31,12.1,31,15.3C31,15.3,31,15.3,31,15.3z"/>
	<path class="st1" d="M10.1,21.5c0.6,0.1,1.2-0.1,1.8-0.4c0.4-0.2,0.9-0.5,1.3-0.7c1-0.7,2.1-0.9,3.3-0.8c0.3,0,0.6,0.1,0.9,0.1
		c0.3,0.1,0.6,0.2,0.8,0.5c0.3,0.3,0.6,0.7,0.9,1c0.7,0.7,1.4,0.7,2.3,0.3c0.9-0.5,1.7-1.1,2.4-1.7c0.2-0.2,0.4-0.3,0.6-0.5
		c0,1.4-0.1,2.7-1,3.9c-0.2,0.3-0.5,0.4-0.8,0.4c-1.1,0-2.2,0.1-3.3,0.1c-1.2,0.1-2.3,0.1-3.5,0.1c-0.3,0-0.6,0-0.8-0.1
		c-0.1,0-0.2-0.1-0.3-0.1c-0.1-0.1-0.3-0.2-0.2-0.4c0-0.2,0.2-0.3,0.4-0.3c0.5-0.1,0.9,0,1.4,0c0.4,0,0.8,0,1.2-0.1
		c0.3-0.1,0.5-0.2,0.7-0.4c0.2-0.2,0.1-0.3-0.1-0.4c-0.3,0-0.6,0-1,0c-0.5-0.1-0.9-0.1-1.3-0.5c-0.1-0.2-0.3-0.2-0.5-0.1
		c-0.3,0.1-0.6,0.3-0.8,0.5c-0.5,0.5-0.9,1-1.2,1.6c0,0-0.1,0-0.1,0C12,23,11.1,22.3,10.1,21.5z"/>
	<path class="st1" d="M20.1,14.8c1.3-0.8,2.7-1,4.1-1.6c-0.4-0.3-0.7-0.6-1.2-0.7c-1.4-0.2-2.7-0.1-3.8,0.9
		c-0.1,0.1-0.2,0.2-0.3,0.3c-0.4,0.7-1.2,0.8-1.9,0.8c0.2-0.7,0.4-1.3,0.9-1.9c0.7-0.8,1.6-1.5,2.6-1.7c2.3-0.6,4.5,0.2,5.7,2.5
		c0.1,0.1,0.1,0.2,0.1,0.4c0.1,0.4,0.1,0.4-0.3,0.4c-0.6,0-1.1,0.1-1.7,0.2c-0.6,0-1.2,0.2-1.8,0.2c-0.4,0-0.9,0.1-1.3,0.1
		C20.8,14.8,20.5,14.9,20.1,14.8z"/>
	<path class="st0" d="M10.2,10.8c2.3,0,4.1,1.3,4.9,3.3c0.2,0.6,0.2,0.5-0.3,0.5c-0.6,0-1.1-0.3-1.5-0.8c-0.7-0.9-1.6-1.2-2.7-1.3
		c-0.4,0-0.8,0-1.2,0.1c-0.6,0.1-1,0.3-1.4,0.7c-0.2,0.2-0.4,0.4-0.6,0.7c-0.2,0.2-0.4,0.4-0.7,0.4c-0.3,0-0.5,0-0.8,0.1
		c-0.1,0-0.2,0-0.1-0.2c0.4-1.7,2.1-3.2,3.8-3.4C9.7,10.9,10,10.8,10.2,10.8z"/>
	<path class="st0" d="M13.9,24.8c1.3,0,2.5,0,3.7,0c0.2,0,0.1,0.1,0.1,0.2c-0.3,1-0.6,2.1-0.9,3.1c-0.2,0.8-0.5,1.7-0.8,2.5
		c0,0.1,0,0.2-0.2,0.2c-0.1,0-0.1-0.1-0.1-0.2c-0.5-1.3-0.9-2.7-1.3-4C14.3,26,14.1,25.4,13.9,24.8z"/>
	<path class="st0" d="M10.1,21.5c0.9,0.7,1.8,1.4,2.9,1.9c0,0,0.1,0,0.1,0c0,0.1-0.1,0.1-0.2,0.1c-1.2,0-2.3,0-3.5,0.1
		c-0.4,0-0.7-0.1-0.9-0.5c-0.7-1.1-1.1-2.4-1-3.8c0.1,0,0.2,0.1,0.2,0.2c0.4,0.5,0.9,0.9,1.3,1.4C9.5,21.2,9.8,21.4,10.1,21.5z"/>
	<path class="st0" d="M10.4,13.6c0.4,0,0.9,0.1,1.3,0.3c0.4,0.3,0.5,0.7,0.1,1c-0.6,0.6-1.8,0.7-2.5,0.2c-0.1-0.1-0.2-0.2-0.3-0.3
		c-0.3-0.3-0.2-0.7,0.1-1C9.4,13.7,9.9,13.6,10.4,13.6z"/>
</g>
</svg>
