<?xml version="1.0" encoding="utf-8"?>
<!-- Generator: Adobe Illustrator 28.0.0, SVG Export Plug-In . SVG Version: 6.00 Build 0)  -->
<svg version="1.1" id="Layer_1" xmlns="http://www.w3.org/2000/svg" xmlns:xlink="http://www.w3.org/1999/xlink" x="0px" y="0px"
	 viewBox="0 0 32 36" style="enable-background:new 0 0 32 36;" xml:space="preserve">
<style type="text/css">
	.st0{fill:none;stroke:#36FDCA;stroke-width:2;stroke-linecap:round;stroke-linejoin:round;stroke-miterlimit:10;}
	.st1{fill:none;stroke:#36FDCA;stroke-linecap:round;stroke-linejoin:round;stroke-miterlimit:10;}
	.st2{fill:#36FDCA;stroke:#36FDCA;stroke-linecap:round;stroke-linejoin:round;stroke-miterlimit:10;}
</style>
<g>
	<polyline class="st0" points="21.5,2 29.5,2 29.5,27.6 23.5,34 	"/>
	<polyline class="st0" points="10.5,2 2.5,2 2.5,27.6 8.5,34 	"/>
	<path class="st1" d="M6.5,15.1c0,0,1-2.4,4-2.4s4.5,2.4,4.5,2.4"/>
	<line class="st1" x1="9.5" y1="16.2" x2="11.5" y2="16.2"/>
	<path class="st1" d="M17.5,15.1c0,0,1-2.4,4-2.4s4.5,2.4,4.5,2.4"/>
	<line class="st1" x1="20.5" y1="16.2" x2="22.5" y2="16.2"/>
	<path class="st1" d="M24.5,22c0,0-1,2.6-3,2.6s-3-2.6-5-2.6s-3,2.6-5,2.6s-3-2.6-3-2.6"/>
	<polygon class="st2" points="15.5,27 16.5,31.5 17.4,27 	"/>
</g>
</svg>
